<mxfile host="app.diagrams.net" agent="Mozilla/5.0 (Windows NT 10.0; Win64; x64) AppleWebKit/537.36 (KHTML, like Gecko) Chrome/138.0.0.0 Safari/537.36" version="28.0.7">
  <diagram name="ページ1" id="zIxeJKcFp72MeeBreJ-N">
    <mxGraphModel dx="1092" dy="798" grid="1" gridSize="10" guides="1" tooltips="1" connect="1" arrows="1" fold="1" page="1" pageScale="1" pageWidth="827" pageHeight="1169" math="0" shadow="0">
      <root>
        <mxCell id="0" />
        <mxCell id="1" parent="0" />
        <mxCell id="swg0OKwPYbc3tr7jmven-2" value="&lt;font style=&quot;font-size: 24px;&quot;&gt;first&lt;/font&gt;" style="rounded=0;whiteSpace=wrap;html=1;labelBackgroundColor=light-dark(default, #658095);fillColor=#dae8fc;strokeColor=#6c8ebf;" parent="1" vertex="1">
          <mxGeometry x="120" y="200" width="120" height="60" as="geometry" />
        </mxCell>
        <mxCell id="swg0OKwPYbc3tr7jmven-3" value="&lt;font style=&quot;font-size: 24px;&quot;&gt;last&lt;/font&gt;" style="rounded=0;whiteSpace=wrap;html=1;fillColor=#dae8fc;strokeColor=#6c8ebf;" parent="1" vertex="1">
          <mxGeometry x="120" y="260" width="120" height="60" as="geometry" />
        </mxCell>
        <mxCell id="swg0OKwPYbc3tr7jmven-4" value="&lt;span style=&quot;font-size: 24px;&quot;&gt;　　使用中の部分　　　　　　　未使用の部分&lt;/span&gt;" style="rounded=1;whiteSpace=wrap;html=1;fillColor=#f8cecc;strokeColor=#b85450;" parent="1" vertex="1">
          <mxGeometry x="320" y="200" width="630" height="60" as="geometry" />
        </mxCell>
        <mxCell id="swg0OKwPYbc3tr7jmven-6" value="" style="endArrow=classic;html=1;rounded=0;entryX=0;entryY=0.5;entryDx=0;entryDy=0;strokeWidth=4;shadow=1;fillColor=#f5f5f5;strokeColor=#666666;" parent="1" source="swg0OKwPYbc3tr7jmven-2" target="swg0OKwPYbc3tr7jmven-4" edge="1">
          <mxGeometry width="50" height="50" relative="1" as="geometry">
            <mxPoint x="390" y="410" as="sourcePoint" />
            <mxPoint x="440" y="360" as="targetPoint" />
          </mxGeometry>
        </mxCell>
        <mxCell id="swg0OKwPYbc3tr7jmven-7" value="" style="curved=1;endArrow=classic;html=1;rounded=0;strokeWidth=4;shadow=1;fillColor=#f5f5f5;strokeColor=#666666;" parent="1" edge="1">
          <mxGeometry width="50" height="50" relative="1" as="geometry">
            <mxPoint x="240" y="300" as="sourcePoint" />
            <mxPoint x="700" y="260" as="targetPoint" />
            <Array as="points">
              <mxPoint x="600" y="300" />
              <mxPoint x="700" y="300" />
            </Array>
          </mxGeometry>
        </mxCell>
        <mxCell id="lvbXpARWUECQ0F7yCRHX-2" value="" style="endArrow=none;html=1;rounded=0;entryX=0.75;entryY=0;entryDx=0;entryDy=0;exitX=0.75;exitY=1;exitDx=0;exitDy=0;" edge="1" parent="1">
          <mxGeometry width="50" height="50" relative="1" as="geometry">
            <mxPoint x="680" y="260" as="sourcePoint" />
            <mxPoint x="680.0000000000002" y="200" as="targetPoint" />
          </mxGeometry>
        </mxCell>
        <mxCell id="lvbXpARWUECQ0F7yCRHX-4" value="&lt;span style=&quot;font-size: 24px;&quot;&gt;cap&lt;/span&gt;" style="rounded=0;whiteSpace=wrap;html=1;fillColor=#dae8fc;strokeColor=#6c8ebf;" vertex="1" parent="1">
          <mxGeometry x="120" y="320" width="120" height="60" as="geometry" />
        </mxCell>
        <mxCell id="lvbXpARWUECQ0F7yCRHX-5" value="" style="curved=1;endArrow=classic;html=1;rounded=0;strokeWidth=4;shadow=1;fillColor=#f5f5f5;strokeColor=#666666;" edge="1" parent="1">
          <mxGeometry width="50" height="50" relative="1" as="geometry">
            <mxPoint x="240" y="350" as="sourcePoint" />
            <mxPoint x="980" y="250" as="targetPoint" />
            <Array as="points">
              <mxPoint x="890" y="350" />
              <mxPoint x="980" y="350" />
            </Array>
          </mxGeometry>
        </mxCell>
      </root>
    </mxGraphModel>
  </diagram>
</mxfile>
